# xmcd
#
# Track frame offsets:
#	150
#	28134
#	47956
#	64190
#	85729
#	100216
#	114560
#	137579
#	159403
#	174206
#	186289
#	211583
#	227553
#	239842
#	254793
#	271342
#
# Disc length: 3757 seconds
#
# Revision: 0
# Processed by: cddbd v1.5.1PL0 Copyright (c) Steve Scherf et al.
# Submitted via: dBpowerAMP V4.0
#
DISCID=e00eab10
DTITLE=Various Artist - Show de Bandas 2003 - Vol 2
DYEAR=2003
DGENRE=Bandinha
TTITLE0=O Último Baile - MUSICAL JM
TTITLE1=Suga Meu Mel - MILENNIUM CIA SHOW
TTITLE2=A Outra (Misturinha) - SAN MARINO
TTITLE3=Diga Locutor - SAN FRANCISCO
TTITLE4=CD Pirata - MUSICAL SOM SETE
TTITLE5=Mascado Chiclete -SANGUE LATINO
TTITLE6=Artistas Convidados - MUSICAL JM
TTITLE7=Cor de Caramelo - MILENNIUM CIA SHOW
TTITLE8=É Hoje Que a Casa Cai - SAN MARINO
TTITLE9=A Cobra Vai Fumar - SAN FRANCISCO
TTITLE10=Ah é! - MUSICAL SOM SETE
TTITLE11=Patricinhas do Baile - MUSICAL JM
TTITLE12=Não da Nada - BANDA CÉU and CANTOS
TTITLE13=Chopp e Dança - VOX 3
TTITLE14=Alô Meu Amor - CORPO E ALMA
TTITLE15=Por Onde Vou  - MUSICAL SOM SETE
EXTD=
EXTT0=
EXTT1=
EXTT2=
EXTT3=
EXTT4=
EXTT5=
EXTT6=
EXTT7=
EXTT8=
EXTT9=
EXTT10=
EXTT11=
EXTT12=
EXTT13=
EXTT14=
EXTT15=
PLAYORDER=
